# xmcd CD database file
#
# Track frame offsets:
#	150
#	48982
#	66238
#	92896
#	134207
#	191797
#	247046
#	294677
#
# Disc length: 4573 seconds
#
# Revision: 1
# Processed by: cddbd v1.5.2PL0 Copyright (c) Steve Scherf et al.
# Submitted via: CDex 1.70beta2
#
DISCID=8511db08
DTITLE=Various Artist - Jazz Roads CD 398 - Bebop - Bebop Live Concerts Vol.9
DYEAR=1900
DGENRE=Jazz
TTITLE0=Charlie Parker Jam Session - There's A Small Hotel
TTITLE1=Charlie Parker Jam Session - These Foolish Things
TTITLE2=Charlie Parker Jam Session - Fine And Dandy
TTITLE3=Charlie Parker Jam Session - Hot House
TTITLE4=Roy Eldridge - The Opener
TTITLE5=Roy Eldridge - Lester Leaps In
TTITLE6=Roy Eldridge - Embraceable You
TTITLE7=Roy Eldridge - The Closer
EXTD=
EXTT0=
EXTT1=
EXTT2=
EXTT3=
EXTT4=
EXTT5=
EXTT6=
EXTT7=
PLAYORDER=
